<svg width="88" height="88" viewBox="0 0 88 88" fill="none" xmlns="http://www.w3.org/2000/svg">
<path d="M24.805 42.2785C24.805 43.362 24.915 44.242 25.124 44.891C25.355 45.5345 25.652 46.2385 26.059 47.003C26.1889 47.205 26.2594 47.4394 26.2625 47.6795C26.2625 47.971 26.0865 48.268 25.7125 48.5595L23.8645 49.7915C23.6427 49.9516 23.3788 50.0434 23.1055 50.0555C22.8085 50.0555 22.517 49.9125 22.2255 49.6485C21.8302 49.2231 21.4766 48.7608 21.1695 48.268C20.8423 47.7038 20.5395 47.1257 20.262 46.5355C17.9795 49.236 15.114 50.589 11.66 50.589C9.20149 50.589 7.23799 49.8795 5.80799 48.4715C4.37249 47.0635 3.64099 45.1825 3.64099 42.834C3.64099 40.337 4.52099 38.313 6.30299 36.784C8.09049 35.255 10.461 34.496 13.475 34.496C14.465 34.496 15.4935 34.584 16.577 34.727C17.6605 34.8755 18.777 35.112 19.943 35.376V33.231C19.943 30.998 19.4755 29.4415 18.568 28.534C17.633 27.621 16.049 27.181 13.794 27.181C12.771 27.181 11.7205 27.302 10.637 27.566C9.56049 27.8222 8.50364 28.1549 7.47449 28.5615C7.14222 28.7119 6.8005 28.8405 6.45149 28.9465C6.30026 28.9964 6.14304 29.026 5.98399 29.0345C5.57149 29.0345 5.36799 28.7375 5.36799 28.1215V26.6805C5.36799 26.213 5.42299 25.8555 5.57149 25.6575C5.79313 25.3876 6.07596 25.1746 6.39649 25.036C7.41399 24.508 8.64599 24.068 10.0815 23.716C11.5115 23.331 13.035 23.1605 14.6465 23.1605C18.128 23.1605 20.6745 23.9525 22.3135 25.5365C23.925 27.1205 24.7445 29.5295 24.7445 32.7635V42.2785H24.7995H24.805ZM12.9195 46.739C13.882 46.739 14.8775 46.563 15.9335 46.211C16.984 45.859 17.9245 45.21 18.711 44.33C19.1826 43.7897 19.5233 43.1479 19.7065 42.4545C19.8825 41.745 20.0035 40.898 20.0035 39.897V38.665C19.1152 38.4496 18.2154 38.2843 17.3085 38.17C16.3965 38.052 15.4781 37.9914 14.5585 37.9885C12.595 37.9885 11.1595 38.3735 10.197 39.1655C9.22899 39.9575 8.76699 41.074 8.76699 42.5425C8.76699 43.9175 9.11349 44.946 9.84499 45.6555C10.549 46.387 11.572 46.739 12.9195 46.739ZM36.421 49.9125C35.893 49.9125 35.541 49.8245 35.31 49.6155C35.0735 49.4395 34.87 49.0325 34.694 48.4715L27.819 25.773C27.6834 25.3925 27.5929 24.9975 27.5495 24.596C27.5495 24.1285 27.786 23.8645 28.2535 23.8645H31.1245C31.6745 23.8645 32.0595 23.9525 32.263 24.156C32.4995 24.332 32.6755 24.7445 32.8515 25.3L37.7685 44.7425L42.3335 25.3C42.4765 24.717 42.6525 24.332 42.8835 24.156C43.2364 23.9398 43.6475 23.838 44.0605 23.8645H46.398C46.959 23.8645 47.333 23.9525 47.5695 24.156C47.806 24.332 48.0095 24.7445 48.125 25.3L52.7505 44.979L57.8105 25.3C57.9043 24.8741 58.1071 24.4799 58.399 24.156C58.7398 23.94 59.1404 23.8379 59.543 23.8645H62.2655C62.733 23.8645 62.997 24.101 62.997 24.596C62.997 24.7445 62.964 24.893 62.942 25.069C62.8947 25.3187 62.8248 25.5635 62.733 25.8005L55.6765 48.499C55.5005 49.0875 55.297 49.4725 55.066 49.6485C54.7339 49.8609 54.3431 49.9629 53.9495 49.94H51.436C50.8805 49.94 50.501 49.852 50.2645 49.6485C50.028 49.4395 49.8245 49.06 49.709 48.4715L45.1715 29.535L40.6615 48.4495C40.5185 49.038 40.3425 49.4175 40.1115 49.621C39.875 49.83 39.4625 49.918 38.94 49.918H36.421V49.9125ZM74.03 50.7045C72.5111 50.7065 70.9973 50.5293 69.52 50.1765C68.057 49.8245 66.9185 49.4395 66.154 48.9995C65.6865 48.7355 65.3675 48.444 65.2465 48.1745C65.1347 47.9157 65.0767 47.6369 65.076 47.355V45.859C65.076 45.243 65.307 44.946 65.747 44.946C65.9266 44.9464 66.105 44.9761 66.275 45.034C66.451 45.0945 66.715 45.21 67.0065 45.331C67.9965 45.771 69.0855 46.123 70.224 46.3595C71.3955 46.5905 72.534 46.7115 73.7055 46.7115C75.5535 46.7115 76.9835 46.387 77.979 45.7435C78.4572 45.454 78.8502 45.0429 79.1178 44.5521C79.3854 44.0613 79.5182 43.5083 79.5025 42.9495C79.5124 42.5722 79.4475 42.1967 79.3116 41.8446C79.1756 41.4925 78.9713 41.1708 78.7105 40.898C78.188 40.337 77.1925 39.8365 75.757 39.369L71.511 38.049C69.377 37.3725 67.793 36.3715 66.8305 35.0515C65.8883 33.8318 65.3741 32.3357 65.3675 30.7945C65.3675 29.5625 65.6315 28.4735 66.154 27.533C66.682 26.598 67.386 25.773 68.266 25.124C69.146 24.453 70.136 23.9525 71.3075 23.6005C72.479 23.2485 73.7055 23.1 74.9925 23.1C75.6415 23.1 76.3125 23.1275 76.956 23.2155C77.627 23.3035 78.243 23.4245 78.859 23.5455C79.442 23.6885 80.003 23.8315 80.5255 24.013C81.0535 24.189 81.4605 24.365 81.7575 24.541C82.1028 24.7144 82.4039 24.9646 82.6375 25.2725C82.8258 25.5588 82.9164 25.8984 82.896 26.2405V27.621C82.896 28.237 82.665 28.5615 82.225 28.5615C81.8354 28.517 81.4581 28.3975 81.114 28.2095C79.3454 27.4253 77.4274 27.035 75.493 27.0655C73.8265 27.0655 72.5065 27.3295 71.599 27.8905C70.6915 28.4405 70.224 29.2985 70.224 30.503C70.224 31.3225 70.5155 32.0265 71.104 32.5875C71.687 33.143 72.7705 33.6985 74.3215 34.199L78.4795 35.519C80.586 36.1955 82.1095 37.136 83.017 38.3405C83.9245 39.545 84.359 40.9255 84.359 42.4545C84.359 43.7195 84.1005 44.858 83.6 45.859C83.0818 46.8634 82.3541 47.7449 81.466 48.444C80.5585 49.1755 79.475 49.709 78.2155 50.0885C76.8955 50.501 75.5205 50.7045 74.03 50.7045Z" fill="white"/>
<path fill-rule="evenodd" clip-rule="evenodd" d="M79.5575 64.9715C69.9325 72.105 55.9405 75.8945 43.912 75.8945C27.0545 75.8945 11.8635 69.641 0.390544 59.246C-0.516956 58.421 0.302544 57.3045 1.38054 57.9535C13.794 65.175 29.1005 69.553 44.9405 69.553C55.616 69.553 67.353 67.32 78.155 62.7385C79.7665 62.007 81.1415 63.7945 79.5575 64.9715Z" fill="#FF9900"/>
<path fill-rule="evenodd" clip-rule="evenodd" d="M83.5671 60.39C82.3406 58.8115 75.4326 59.631 72.3031 60.0105C71.3681 60.1315 71.2196 59.3065 72.0666 58.6905C77.5666 54.813 86.6141 55.9295 87.6646 57.222C88.7206 58.542 87.3731 67.617 82.2196 71.962C81.4331 72.6385 80.6741 72.292 81.0206 71.412C82.1921 68.497 84.7991 61.952 83.5671 60.3955V60.39Z" fill="#FF9900"/>
</svg>
