<svg width="86" height="86" viewBox="0 0 86 86" fill="none" xmlns="http://www.w3.org/2000/svg">
<g clip-path="url(#clip0_82_120)">
<path fill-rule="evenodd" clip-rule="evenodd" d="M17.7308 7.11383C12.8599 7.11383 9.25569 11.3771 9.41703 16.0006C9.57183 20.4425 9.37072 26.1953 7.92238 30.8868C6.46974 35.5919 4.01291 38.5726 0 38.9553V43.2755C4.01291 43.6582 6.46974 46.6389 7.92238 51.3444C9.37072 56.0356 9.57183 61.7885 9.41703 66.2304C9.25569 70.8533 12.8599 75.117 17.7315 75.117H67.6414C72.5126 75.117 76.1161 70.854 75.9546 66.2304C75.7999 61.7885 76.0009 56.0356 77.4493 51.3444C78.9026 46.6389 81.353 43.6582 85.3659 43.2755V38.9553C81.353 38.5726 78.9026 35.5919 77.4493 30.8868C76.0009 26.196 75.7999 20.4425 75.9546 16.0006C76.1161 11.3778 72.5126 7.11383 67.6414 7.11383H17.7308ZM57.8752 48.9741C57.8752 55.3406 53.1264 59.2016 45.246 59.2016H31.8313C31.4476 59.2016 31.0796 59.049 30.8083 58.7776C30.5369 58.5062 30.3845 58.1384 30.3845 57.7546V24.4764C30.3845 24.0926 30.5369 23.7246 30.8083 23.4533C31.0796 23.1819 31.4476 23.0295 31.8313 23.0295H45.1696C51.7403 23.0295 56.0527 26.5888 56.0527 32.0537C56.0527 35.8892 53.152 39.3234 49.4557 39.9246V40.1252C54.4873 40.6772 57.8752 44.1612 57.8752 48.9741ZM43.7834 27.6161H36.1343V38.42H42.5766C47.5566 38.42 50.3029 36.4146 50.3029 32.8299C50.3029 29.471 47.9415 27.6161 43.7834 27.6161ZM36.1343 42.7071V54.6135H44.0648C49.2497 54.6135 51.9963 52.5327 51.9963 48.6226C51.9963 44.7118 49.1729 42.7064 43.7312 42.7064L36.1343 42.7071Z" fill="#A259FF"/>
</g>
<defs>
<clipPath id="clip0_82_120">
<rect width="85.3659" height="85.3659" fill="white"/>
</clipPath>
</defs>
</svg>
