<svg width="67" height="67" viewBox="0 0 67 67" fill="none" xmlns="http://www.w3.org/2000/svg">
<g clip-path="url(#clip0_82_74)">
<path fill-rule="evenodd" clip-rule="evenodd" d="M33.5 0C52.002 0 67 15.3763 67 34.3473C67 49.5195 57.4123 62.3903 44.1094 66.9362C42.411 67.2746 41.808 66.2019 41.808 65.2874C41.808 64.1551 41.8482 60.4568 41.8482 55.8606C41.8482 52.658 40.7762 50.5678 39.5736 49.5025C47.034 48.6516 54.873 45.7468 54.873 32.5545C54.873 28.8025 53.5732 25.7408 51.4225 23.3355C51.7709 22.4678 52.9199 18.9742 51.0942 14.244C51.0942 14.244 48.2869 13.3237 41.8917 17.7658C39.2151 17.0053 36.3475 16.6227 33.5 16.6093C30.6525 16.6227 27.7883 17.0053 25.115 17.7658C18.7131 13.3237 15.8991 14.244 15.8991 14.244C14.0801 18.9742 15.2291 22.4678 15.5742 23.3355C13.4335 25.7408 12.1237 28.8025 12.1237 32.5545C12.1237 45.7133 19.9459 48.6626 27.3863 49.5303C26.4282 50.3879 25.5605 51.9008 25.259 54.1218C23.3495 54.9995 18.4987 56.5185 15.5105 51.2691C15.5105 51.2691 13.7383 47.9689 10.375 47.7277C10.375 47.7277 7.1087 47.6843 10.1471 49.8149C10.1471 49.8149 12.3414 50.8701 13.8656 54.8399C13.8656 54.8399 15.8321 60.9703 25.1518 58.8933C25.1686 61.7642 25.1987 64.47 25.1987 65.2874C25.1987 66.1952 24.5823 67.2577 22.9106 66.9395C9.59774 62.4002 0 49.5228 0 34.3473C0 15.3763 15.0013 0 33.5 0Z" fill="#EFEFF0"/>
</g>
<defs>
<clipPath id="clip0_82_74">
<rect width="67" height="67" fill="white"/>
</clipPath>
</defs>
</svg>
