<svg width="23" height="25" viewBox="0 0 23 25" fill="none" xmlns="http://www.w3.org/2000/svg">
<path d="M11.5 24.1771C17.8513 24.1771 23 18.7649 23 12.0886C23 5.41223 17.8513 0 11.5 0C5.14873 0 0 5.41223 0 12.0886C0 18.7649 5.14873 24.1771 11.5 24.1771Z" fill="#0A66C2"/>
<path d="M15.5677 16.3667H13.8606V13.557C13.8606 12.8865 13.8472 12.0247 12.9712 12.0247C12.0817 12.0247 11.9447 12.7543 11.9447 13.5075V16.3667H10.2377V10.5868H11.8773V11.3754H11.8998C12.1289 10.9221 12.6859 10.4428 13.517 10.4428C15.2465 10.4428 15.5654 11.6399 15.5654 13.1958L15.5677 16.3667ZM8.31279 9.79589C7.7625 9.79589 7.32227 9.32841 7.32227 8.75467C7.32227 8.18094 7.76475 7.71345 8.31279 7.71345C8.86084 7.71345 9.30332 8.18094 9.30332 8.75467C9.30332 9.32841 8.85859 9.79589 8.31279 9.79589ZM9.16856 16.3667H7.45703V10.5868H9.16856V16.3667ZM16.4212 6.04419H6.60127C6.13184 6.04419 5.75 6.43376 5.75 6.91778V17.2828C5.75 17.7644 6.12959 18.1564 6.60127 18.1564H16.4189C16.8884 18.1564 17.2725 17.7668 17.2725 17.2828V6.91778C17.2725 6.43376 16.8884 6.04419 16.4212 6.04419Z" fill="white"/>
</svg>
