<svg width="15" height="12" viewBox="0 0 15 12" fill="none" xmlns="http://www.w3.org/2000/svg">
<path d="M14.0567 0.946533H1.38047C1.24039 0.946533 1.10605 1.00425 1.00699 1.10698C0.907942 1.20971 0.852295 1.34904 0.852295 1.49432V10.8067C0.852295 11.0972 0.963589 11.3759 1.16169 11.5814C1.3598 11.7868 1.62849 11.9022 1.90865 11.9022H13.5286C13.8087 11.9022 14.0774 11.7868 14.2755 11.5814C14.4736 11.3759 14.5849 11.0972 14.5849 10.8067V1.49432C14.5849 1.34904 14.5293 1.20971 14.4302 1.10698C14.3312 1.00425 14.1968 0.946533 14.0567 0.946533ZM12.6987 2.0421L7.7186 6.77702L2.73855 2.0421H12.6987ZM13.5286 10.8067H1.90865V2.73984L7.36142 7.92395C7.45887 8.01672 7.58633 8.06819 7.7186 8.06819C7.85088 8.06819 7.97834 8.01672 8.07578 7.92395L13.5286 2.73984V10.8067Z" fill="#EFEFF0"/>
</svg>
