<svg width="16" height="16" viewBox="0 0 16 16" fill="none" xmlns="http://www.w3.org/2000/svg">
<path d="M8.89109 5.33333C9.40254 5.33333 9.89304 5.54405 10.2547 5.91912C10.6163 6.29419 10.8195 6.8029 10.8195 7.33333C10.8195 7.51014 10.8872 7.67971 11.0078 7.80474C11.1283 7.92976 11.2918 8 11.4623 8C11.6328 8 11.7963 7.92976 11.9168 7.80474C12.0374 7.67971 12.1051 7.51014 12.1051 7.33333C12.1051 6.44928 11.7665 5.60143 11.1637 4.97631C10.561 4.35119 9.74351 4 8.89109 4C8.72061 4 8.55711 4.07024 8.43656 4.19526C8.31601 4.32029 8.24829 4.48986 8.24829 4.66667C8.24829 4.84348 8.31601 5.01305 8.43656 5.13807C8.55711 5.2631 8.72061 5.33333 8.89109 5.33333Z" fill="#EFEFF0"/>
<path d="M8.89109 2.66659C10.0845 2.66659 11.229 3.15825 12.0728 4.03342C12.9167 4.90859 13.3907 6.09557 13.3907 7.33325C13.3907 7.51006 13.4584 7.67963 13.579 7.80466C13.6995 7.92968 13.863 7.99992 14.0335 7.99992C14.204 7.99992 14.3675 7.92968 14.4881 7.80466C14.6086 7.67963 14.6763 7.51006 14.6763 7.33325C14.6763 5.74195 14.0668 4.21583 12.9819 3.09061C11.8969 1.96539 10.4254 1.33325 8.89109 1.33325C8.72061 1.33325 8.55711 1.40349 8.43656 1.52851C8.31601 1.65354 8.24829 1.82311 8.24829 1.99992C8.24829 2.17673 8.31601 2.3463 8.43656 2.47132C8.55711 2.59635 8.72061 2.66659 8.89109 2.66659Z" fill="#EFEFF0"/>
<path d="M14.5157 10.6066C14.4803 10.4996 14.4193 10.4036 14.3383 10.3278C14.2574 10.252 14.1591 10.1988 14.0529 10.1733L10.196 9.25992C10.0914 9.2353 9.98239 9.23827 9.87909 9.26854C9.77579 9.29882 9.68145 9.35544 9.60467 9.43325C9.51467 9.51992 9.50825 9.52658 9.09042 10.3533C7.70402 9.69069 6.59313 8.53382 5.95997 7.09325C6.77633 6.66658 6.78276 6.66659 6.86632 6.56659C6.94134 6.48696 6.99594 6.38911 7.02514 6.28197C7.05433 6.17484 7.05719 6.06183 7.03345 5.95325L6.15281 1.99992C6.12816 1.88972 6.07687 1.78783 6.00377 1.70386C5.93068 1.61989 5.83818 1.55659 5.73499 1.51992C5.58487 1.46431 5.42986 1.42412 5.27217 1.39992C5.1097 1.36085 4.94391 1.33852 4.77721 1.33325C3.99299 1.33325 3.24089 1.65635 2.68637 2.23146C2.13184 2.80657 1.82031 3.58659 1.82031 4.39992C1.82371 7.12172 2.86775 9.73104 4.72347 11.6557C6.57919 13.5803 9.09511 14.6631 11.7195 14.6666C12.1078 14.6666 12.4923 14.5873 12.851 14.4331C13.2098 14.279 13.5358 14.0531 13.8103 13.7684C14.0849 13.4836 14.3027 13.1455 14.4513 12.7735C14.5999 12.4014 14.6764 12.0026 14.6764 11.5999C14.6766 11.4302 14.6637 11.2608 14.6378 11.0933C14.6108 10.9277 14.5699 10.7648 14.5157 10.6066Z" fill="#EFEFF0"/>
</svg>
